
<svg xmlns="http://www.w3.org/2000/svg" style="isolation:isolate" viewBox="0 0 560 315" width="560pt" height="420">
  <defs>
    <clipPath id="a">
      <path d="M0 0h560v315H0z"/>
    </clipPath>
  </defs>
  <g clip-path="url(#a)" fill="#FFF">
    <path d="M476.453 143.358c-25.265 27.921-18.735 61.709 18.782 49.537 37.46-12.286 47.268-57.175 39.881-75.808-7.386-18.633 9.049-14.413 15.477-13.327-6.683-13.382-14.26-20.867-23.31-22.618-11.49-4.05-25.002 16.509-35.504 26.274-8.664-33.326-27.627-51.876-76.95-52.95 4.616 3.018 8.542 7.938 10 13.904-1.41 1.94-1.594 10.719.09 13.516 1.683 2.797-.982 22.864 9.287 37.17 10.268 14.305 42.691 29.275 41.89 24.659M458.83 89.519c-13.701 1.171-35.838-26.592-38.126-29.486M459.615 107.569c-16.706 5.19-36.573-25.398-35.912-32.368" fill-opacity=".17" vector-effect="non-scaling-stroke" stroke="#FFF" stroke-linecap="square" stroke-miterlimit="3"/>
    <path d="M70.113 193.742H48.58v-34.035q0-6.223-1.79-9.389-1.79-3.167-5.755-3.167-5.452 0-7.875 4.351-2.423 4.35-2.423 14.924v27.316H9.204v-62.397H25.45l2.698 7.71h1.267q2.754-4.405 7.627-6.608 4.874-2.203 11.207-2.203 10.354 0 16.109 6.003 5.755 6.003 5.755 16.907v40.588zm38.507 1.101q-15.585 0-24.204-8.288-8.618-8.288-8.618-23.598 0-15.806 7.985-24.26 7.985-8.453 22.8-8.453 14.098 0 21.781 7.352 7.682 7.352 7.682 21.175v9.583H97.551q.22 5.231 3.827 8.205 3.608 2.974 9.831 2.974 5.672 0 10.436-1.074 4.763-1.074 10.326-3.662v15.475q-5.067 2.589-10.464 3.58-5.397.991-12.887.991zm-1.266-49.95q-3.8 0-6.361 2.396-2.561 2.395-3.002 7.517h18.505q-.111-4.516-2.561-7.214-2.451-2.699-6.581-2.699zm111.312 48.849h-23.02l-7.049-29.739-1.652-8.977-1.102-7.214h-.33q-2.699 15.42-3.635 19.44l-6.333 26.49H152.91l-17.017-62.397h21.203l5.066 23.957q2.423 12.336 2.809 20.486h.33q.166-5.066 3.029-19.275l5.783-25.168h23.791l5.287 25.499q2.533 12.17 3.194 18.944h.33q.331-4.185 1.102-10.436.771-6.25 1.707-10.05l5.507-23.957h20.762l-17.127 62.397z" fill-rule="evenodd"/>
    <path d="M267.987 193.719q-6.031 0-9.047-3.102-3.015-3.101-3.015-7.926 0-3.619 1.292-7.582 1.293-3.963 2.499-8.185 1.206-4.222 1.206-8.185 0-4.825-1.982-6.634-1.981-1.809-4.911-1.809-5.341 0-10.855 4.394t-10.684 11.2q-5.169 6.807-9.649 14.044-4.48 7.237-7.927 12.923-2.757 0-5.255-.947-2.499-.948-3.877-2.844 0-.861 1.809-5.341 1.809-4.481 4.222-11.028 2.412-6.548 4.308-13.441 1.895-6.892 1.895-12.579 1.034-1.206 3.274-2.412t4.652-1.206q4.653 0 4.653 4.48 0 2.757-1.551 9.219-1.551 6.461-3.963 13.526 4.652-7.065 10.425-14.043 5.772-6.979 12.32-11.632 6.548-4.652 13.096-4.652 6.72 0 9.736 4.825 3.015 4.825 3.015 10.683 0 5.342-1.723 9.908-1.723 4.567-3.532 8.788-1.81 4.222-1.81 8.53 0 3.618 1.465 5.083 1.465 1.465 3.705 1.465l10.097-4.888c.064.87.143 1.819.341 3.816l-2.34 1.761q-5.341 3.791-11.889 3.791zm26.646 4.652q-5.342 0-9.047-3.532-2.357-2.239-3.218-5.96a15.423 15.423 0 01-.15-.718c-.124-1.232-.382-3.932-.336-4.092q0-6.203 2.757-13.354 2.757-7.151 7.581-14.13 4.825-6.978 10.942-12.751 6.117-5.772 12.924-9.219 6.806-3.446 13.526-3.446t11.201 3.533q4.48 3.532 4.48 9.391 0 4.307-2.326 5.858-2.327 1.551-6.118 1.551.345-1.378.604-3.016.258-1.636.258-3.015 0-3.963-1.895-6.806-1.896-2.843-6.548-2.843-4.825 0-9.822 3.36-4.997 3.36-9.65 8.96-4.652 5.6-8.271 12.148-3.618 6.548-5.686 12.924-2.068 6.375-2.068 11.372 0 6.72 4.653 6.72 3.963 0 8.615-3.704 4.653-3.705 9.564-9.478 4.911-5.772 9.391-11.975 4.48-6.204 7.926-11.373.689-1.034.862-1.034 1.034.172 2.671.689 1.637.517 2.843 1.379t1.206 2.24q0 1.551-1.551 4.222-1.551 2.67-3.446 6.117-1.896 3.446-3.446 6.978-1.551 3.533-1.551 6.634 0 2.585 1.378 5.084 1.379 2.498 4.48 2.498l15.133-8.604q-1.948 5.846-2.471 7.552c-1.43.935 1.637-.986-4.821 2.948q-6.462 3.963-12.665 3.963-6.376 0-9.391-3.791-3.016-3.791-3.016-8.271 0-1.034.172-2.326.173-1.293.345-2.671-7.409 9.994-13.527 14.991-6.117 4.997-12.492 4.997zm147.437-2.757q-6.031 0-8.788-3.704-2.757-3.705-2.757-8.875 0-4.307 1.293-8.615 1.292-4.308 2.584-8.444 1.293-4.135 1.293-7.409 0-3.446-1.551-4.825-1.551-1.378-3.446-1.378-4.308 0-9.392 6.72-5.083 6.72-13.182 18.954-2.757 4.136-4.652 8.358-1.895 4.221-3.619 7.667-1.378 0-3.446-.344-2.068-.345-3.705-1.12-1.637-.776-1.637-1.982t1.637-5.772q1.637-4.567 3.791-10.684 2.154-6.117 3.791-12.406 1.637-6.29 1.637-10.77 0-2.929-.948-4.738-.947-1.81-3.36-1.81-3.791 0-9.132 4.567-5.342 4.566-11.028 11.975-5.687 7.41-10.77 16.284-5.083 8.874-8.185 17.662-1.551 0-3.791-.517t-3.877-1.378q-1.637-.862-1.637-1.724l1.885-6.117q1.734-5.083 4.06-12.234 2.326-7.151 4.136-14.56 1.809-7.41 1.809-13.096 1.034-1.206 3.274-2.413 2.24-1.206 4.652-1.206 2.413 0 3.533 1.206 1.12 1.207 1.12 3.274 0 2.24-1.293 7.668-1.292 5.428-3.187 11.976 3.446-5.514 7.84-11.286 4.394-5.773 9.219-10.598 4.824-4.825 9.735-7.84 4.911-3.016 9.564-3.016 5.341 0 7.323 3.877 1.982 3.878 1.982 9.219 0 4.308-.948 9.047-.948 4.738-2.154 8.788-1.206 4.049-2.24 6.461 3.619-6.547 8.013-12.664 4.394-6.118 9.563-9.995 5.169-3.877 11.028-3.877 5.514 0 7.668 3.274t2.154 7.754q0 4.481-1.551 9.822-1.551 5.342-3.188 10.339-1.637 4.997-1.637 8.616 0 2.24 1.12 4.049 1.12 1.809 4.05 1.809 4.824 0 9.046-4.394l2.521-3.394 1.147 4.519q.25-.038-4.702 4.648-5.772 4.652-12.665 4.652zm36.813 2.24q-10.512 0-15.767-5.772-2.38-2.614-3.682-5.776c-.563-2.373-1.574-5.36-1.574-8.44q0-7.754 3.877-16.37 3.877-8.615 10.339-16.197 6.462-7.582 14.216-12.321 7.754-4.738 15.336-4.738 3.963 0 7.323 2.067 3.36 2.068 3.36 8.444 0 6.548-3.877 12.32-3.877 5.773-10.166 10.253-6.29 4.48-13.785 7.323-7.496 2.843-14.905 3.533-.345 1.723-.517 3.274-.173 1.55-.173 2.929 0 2.585.604 5.169.603 2.585 2.153 4.739 1.551 2.154 4.222 3.36 2.671 1.206 6.634 1.206 9.672.742 17.821-2.454l.494.905q-13.318 6.546-21.933 6.546zm-8.444-28.948q4.653-1.551 10.511-4.567 5.859-3.015 11.287-7.151 5.428-4.135 8.96-9.132 3.533-4.997 3.533-10.511 0-1.896-.69-2.93-.689-1.033-2.929-1.033-4.136 0-8.788 3.187-4.652 3.188-8.96 8.358-4.308 5.169-7.754 11.372-3.447 6.203-5.17 12.407z" fill-rule="evenodd"/>
  </g>
</svg>