<svg xmlns="http://www.w3.org/2000/svg" xmlns:xlink="http://www.w3.org/1999/xlink" xml:space="preserve" version="1.1" style="shape-rendering:geometricPrecision;text-rendering:geometricPrecision;image-rendering:optimizeQuality;" viewBox="0 0 232 290" x="0px" y="0px" fill-rule="evenodd" clip-rule="evenodd"><defs><style type="text/css">
   
    .fil0 {fill:rgba(252, 252, 252, 0.35);fill-rule:nonzero}
   
  </style></defs><g><path class="fil0" d="M204 27c-36,-36 -95,-36 -131,0 -31,31 -36,79 -14,115l-53 52c-8,9 -8,23 0,31l0 0c9,9 23,9 32,0l52 -52c36,22 83,17 114,-14 37,-36 37,-95 0,-132zm-19 20c25,26 25,67 0,92 -26,26 -67,26 -93,0 -25,-25 -25,-66 0,-92 26,-25 67,-25 93,0z"/><path class="fil0" d="M178 91c0,10 16,9 15,-1 -1,-14 -7,-26 -16,-35 -9,-10 -22,-15 -35,-16 -10,-1 -11,14 -1,15 9,1 18,5 25,12 7,7 11,15 12,25z"/></g></svg>